<svg width="16" height="16" viewBox="0 0 16 16" fill="none" xmlns="http://www.w3.org/2000/svg">
<path fill-rule="evenodd" clip-rule="evenodd" d="M12.6673 6.66667C12.6673 3.96056 11.1751 2.08234 9.24424 1.51848C9.17433 1.33759 9.06384 1.16942 8.91365 1.02831C8.40048 0.546147 7.60084 0.546147 7.08767 1.02831C6.93781 1.16911 6.82747 1.33685 6.75754 1.51729C4.82423 2.07868 3.33398 3.9528 3.33398 6.66667C3.33398 8.4226 2.97997 9.40652 2.32462 10.1196C2.21507 10.2388 1.91828 10.5118 1.71719 10.6968L1.71711 10.6968L1.71708 10.6969C1.62194 10.7844 1.54825 10.8522 1.52596 10.8746L1.33398 11.0693V13.3427H5.39263C5.52987 14.0508 5.91404 14.5245 6.60878 14.9484C7.46341 15.47 8.53789 15.47 9.39252 14.9484C10.0056 14.5743 10.4168 13.9993 10.5835 13.3427H14.6673V11.0693L14.4753 10.8746C14.4551 10.8541 14.3844 10.7889 14.292 10.7036C14.0915 10.5187 13.7888 10.2395 13.6776 10.118C13.0218 9.4016 12.6673 8.41643 12.6673 6.66667ZM9.15847 13.3427H6.78639C6.88058 13.518 7.04112 13.6503 7.30333 13.8103C7.7315 14.0716 8.26981 14.0716 8.69797 13.8103C8.89625 13.6893 9.05118 13.5292 9.15847 13.3427ZM12.6941 11.0183C12.8344 11.1715 13.1351 11.4516 13.334 11.6346V12.0094H2.66732V11.6349C2.8647 11.4541 3.16627 11.1742 3.30631 11.0218C4.1968 10.0529 4.66732 8.74521 4.66732 6.66667C4.66732 4.1466 6.2225 2.67493 8.00065 2.67493C9.77379 2.67493 11.334 4.1542 11.334 6.66667C11.334 8.73854 11.8046 10.0467 12.6941 11.0183Z" fill="#428057"/>
</svg>
