<svg width="24" height="24" viewBox="0 0 24 24" fill="none" xmlns="http://www.w3.org/2000/svg">
<path fill-rule="evenodd" clip-rule="evenodd" d="M10.8575 8.3379C11.3756 7.63969 11.5614 6.90384 10.9754 6.25431C9.66046 4.41433 8.77612 3.27649 8.22142 2.72854C7.16686 1.6868 5.43209 1.82771 4.51877 2.72765C4.02821 3.21101 3.86214 3.377 3.35844 3.88861C0.552792 6.69577 2.26382 12.63 6.81237 17.183C11.3599 21.735 17.2935 23.4469 20.1051 20.6338C20.5699 20.1858 20.9634 19.792 21.2738 19.464C22.1688 18.518 22.3047 16.8597 21.2679 15.7824C20.7363 15.2301 19.6513 14.3885 17.7339 13.0169C17.1467 12.4918 16.4504 12.6056 15.812 13.0244C15.5049 13.2259 15.2815 13.4297 14.8595 13.8521L14.0933 14.6187C13.9924 14.7197 12.622 14.0334 11.2917 12.7018C9.96069 11.3695 9.27487 9.99906 9.37532 9.89862L10.1421 9.13142C10.276 8.99742 10.34 8.93254 10.4221 8.84627C10.5931 8.66654 10.7347 8.50344 10.8575 8.3379ZM15.5067 16.0329L16.2731 15.2661C16.5053 15.0337 16.6558 14.8907 16.7783 14.7922C18.4579 15.9984 19.4307 16.7568 19.828 17.1697C20.0666 17.4176 20.0295 17.8699 19.8221 18.089C19.5352 18.3924 19.1623 18.7655 18.7047 19.2068C16.8867 21.0256 12.0969 19.6437 8.22611 15.7691C4.35412 11.8933 2.97286 7.10279 4.77717 5.29748C5.27884 4.78798 5.43778 4.62912 5.92133 4.15265C6.10264 3.97401 6.5965 3.93389 6.81705 4.15176C7.24412 4.57364 8.03632 5.58799 9.20168 7.21133C9.14136 7.28623 9.06601 7.37087 8.97431 7.46724C8.90701 7.53798 8.85094 7.59481 8.72836 7.71751L7.96234 8.48396C6.65919 9.787 7.769 12.0047 9.87795 14.1157C11.9855 16.2253 14.204 17.3364 15.5067 16.0329Z" fill="white"/>
</svg>
