<svg width="20" height="23" viewBox="0 0 20 23" fill="none" xmlns="http://www.w3.org/2000/svg">
<path fill-rule="evenodd" clip-rule="evenodd" d="M5.7815 5.50042C5.84054 5.40774 5.90611 5.29428 5.98973 5.14129C6.02028 5.08539 6.1036 4.93018 6.16562 4.81462L6.23549 4.68462C6.92631 3.40862 7.42848 2.82297 8.33398 2.82297H11.6673C12.5728 2.82297 13.075 3.40862 13.7658 4.68462L13.8358 4.81479C13.8978 4.93033 13.981 5.08542 14.0116 5.14129C14.0952 5.29428 14.1608 5.40774 14.2198 5.50042C14.2587 5.56154 14.2927 5.61011 14.3205 5.64592H16.6673C18.048 5.64592 19.1673 6.9098 19.1673 8.46887V16.9377C19.1673 18.4968 18.048 19.7607 16.6673 19.7607H3.33398C1.95327 19.7607 0.833984 18.4968 0.833984 16.9377V8.46887C0.833984 6.9098 1.95327 5.64592 3.33398 5.64592H5.68081C5.70856 5.61011 5.74257 5.56154 5.7815 5.50042ZM3.33398 7.52789C2.87375 7.52789 2.50065 7.94918 2.50065 8.46887V16.9377C2.50065 17.4574 2.87375 17.8787 3.33398 17.8787H16.6673C17.1276 17.8787 17.5007 17.4574 17.5007 16.9377V8.46887C17.5007 7.94918 17.1276 7.52789 16.6673 7.52789H14.1673C13.6137 7.52789 13.2403 7.18575 12.8668 6.59938C12.7809 6.46446 12.6957 6.31714 12.5933 6.12967C12.5582 6.06558 12.4674 5.89635 12.4049 5.77984L12.4045 5.77921L12.3438 5.66623C11.9669 4.97003 11.7396 4.70494 11.6673 4.70494H8.33398C8.26171 4.70494 8.0344 4.97003 7.65748 5.66623L7.59688 5.77902C7.53433 5.89555 7.44315 6.06543 7.40804 6.12967C7.30558 6.31714 7.22044 6.46446 7.1345 6.59938C6.76096 7.18575 6.3876 7.52789 5.83398 7.52789H3.33398ZM16.6673 9.40986C16.6673 9.92955 16.2942 10.3508 15.834 10.3508C15.3737 10.3508 15.0007 9.92955 15.0007 9.40986C15.0007 8.89016 15.3737 8.46887 15.834 8.46887C16.2942 8.46887 16.6673 8.89016 16.6673 9.40986ZM5.83398 12.2328C5.83398 14.8313 7.69946 16.9377 10.0007 16.9377C12.3018 16.9377 14.1673 14.8313 14.1673 12.2328C14.1673 9.63435 12.3018 7.52789 10.0007 7.52789C7.69946 7.52789 5.83398 9.63435 5.83398 12.2328ZM12.5007 12.2328C12.5007 13.7919 11.3814 15.0558 10.0007 15.0558C8.61994 15.0558 7.50065 13.7919 7.50065 12.2328C7.50065 10.6737 8.61994 9.40986 10.0007 9.40986C11.3814 9.40986 12.5007 10.6737 12.5007 12.2328Z" fill="#171717"/>
</svg>
