<svg width="43" height="43" viewBox="0 0 43 43" fill="none" xmlns="http://www.w3.org/2000/svg">
<g clip-path="url(#clip0)">
<path d="M40.4706 20.0276V2.95099H37.9412V5.4804H5.05882V2.95099H2.52941V20.0561C1.05401 20.6053 0 22.0278 0 23.6922V34.9902H2.52941V40.049H10.1176V34.9902H32.8824V40.049H40.4706V34.9902H43V23.6922C43 21.9728 41.9581 20.549 40.4706 20.0276ZM37.9412 19.8137H35.2431V17.9167C35.2431 15.7084 33.4465 13.9118 31.2382 13.9118H24.2402C23.1809 13.9118 22.217 14.3259 21.5 14.9999C20.783 14.3259 19.8191 13.9118 18.7598 13.9118H11.5931C9.38488 13.9118 7.58824 15.7084 7.58824 17.9167V19.8137H5.05882V8.00981H37.9412V19.8137ZM20.2353 19.8137H10.1176V17.9167C10.1176 17.1031 10.7796 16.4412 11.5931 16.4412H18.7598C19.5733 16.4412 20.2353 17.1031 20.2353 17.9167V19.8137ZM22.7647 17.9167C22.7647 17.1031 23.4267 16.4412 24.2402 16.4412H31.2382C32.0518 16.4412 32.7137 17.1031 32.7137 17.9167V19.8137H22.7647V17.9167ZM7.58824 37.5196H5.05882V34.9902H7.58824V37.5196ZM37.9412 37.5196H35.4118V34.9902H37.9412V37.5196ZM40.4706 32.4608H2.52941V29.9314H40.4706V32.4608ZM2.52941 27.402V23.6922C2.52941 22.9484 3.13462 22.3431 3.87843 22.3431H39.2059C39.9269 22.3431 40.4706 22.9231 40.4706 23.6922V27.402H2.52941Z" fill="black"/>
</g>
<defs>
<clipPath id="clip0">
<rect width="43" height="43" fill="white"/>
</clipPath>
</defs>
</svg>
