<svg width="22" height="22" viewBox="0 0 22 22" fill="none" xmlns="http://www.w3.org/2000/svg">
<path fill-rule="evenodd" clip-rule="evenodd" d="M11.0009 3.66669C13.5011 3.66669 15.8919 4.97809 18.12 7.13274C18.8801 7.86781 19.5678 8.65258 20.1731 9.43767C20.5384 9.91142 20.7978 10.2841 20.9398 10.5061L21.2557 11L20.9398 11.4939C20.7978 11.7159 20.5384 12.0886 20.1731 12.5624C19.5678 13.3475 18.8801 14.1322 18.12 14.8673C15.8919 17.0219 13.5011 18.3334 11.0009 18.3334C8.50062 18.3334 6.10984 17.0219 3.88178 14.8673C3.12166 14.1322 2.43399 13.3475 1.82863 12.5624C1.46333 12.0886 1.20398 11.7159 1.06198 11.4939L0.746094 11L1.06198 10.5061C1.20398 10.2841 1.46333 9.91142 1.82863 9.43767C2.43399 8.65258 3.12166 7.86781 3.88178 7.13274C6.10984 4.97809 8.50062 3.66669 11.0009 3.66669ZM18.7213 10.5572C18.167 9.83835 17.5369 9.11921 16.8455 8.45063C14.9265 6.59486 12.9305 5.50002 11.0009 5.50002C9.07122 5.50002 7.07524 6.59486 5.15625 8.45063C4.46489 9.11921 3.83473 9.83835 3.28048 10.5572C3.16077 10.7124 3.05016 10.8605 2.94903 11C3.05016 11.1395 3.16077 11.2876 3.28048 11.4429C3.83473 12.1617 4.46489 12.8808 5.15625 13.5494C7.07524 15.4052 9.07122 16.5 11.0009 16.5C12.9305 16.5 14.9265 15.4052 16.8455 13.5494C17.5369 12.8808 18.167 12.1617 18.7213 11.4429C18.841 11.2876 18.9516 11.1395 19.0527 11C18.9516 10.8605 18.841 10.7124 18.7213 10.5572ZM7.33421 11C7.33421 13.0251 8.97583 14.6667 11.0009 14.6667C13.0259 14.6667 14.6675 13.0251 14.6675 11C14.6675 8.97498 13.0259 7.33335 11.0009 7.33335C8.97583 7.33335 7.33421 8.97498 7.33421 11ZM12.8342 11C12.8342 12.0125 12.0134 12.8334 11.0009 12.8334C9.98835 12.8334 9.16754 12.0125 9.16754 11C9.16754 9.9875 9.98835 9.16669 11.0009 9.16669C12.0134 9.16669 12.8342 9.9875 12.8342 11Z" fill="#00A046"/>
</svg>
