<svg width="16" height="16" viewBox="0 0 16 16" fill="none" xmlns="http://www.w3.org/2000/svg">
<path fill-rule="evenodd" clip-rule="evenodd" d="M7.99904 2.66667C9.8174 2.66667 11.5562 3.62042 13.1766 5.18744C13.7294 5.72204 14.2295 6.29278 14.6698 6.86375C14.9354 7.2083 15.1241 7.47933 15.2273 7.64081L15.4571 8L15.2273 8.3592C15.1241 8.52067 14.9354 8.79171 14.6698 9.13626C14.2295 9.70723 13.7294 10.278 13.1766 10.8126C11.5562 12.3796 9.8174 13.3333 7.99904 13.3333C6.18067 13.3333 4.44192 12.3796 2.82151 10.8126C2.2687 10.278 1.76858 9.70723 1.32831 9.13626C1.06264 8.79171 0.874022 8.52067 0.770749 8.3592L0.541016 8L0.770749 7.64081C0.874022 7.47933 1.06264 7.2083 1.32831 6.86375C1.76858 6.29278 2.2687 5.72204 2.82151 5.18744C4.44192 3.62042 6.18067 2.66667 7.99904 2.66667ZM13.6139 7.67792C13.2108 7.15515 12.7525 6.63214 12.2497 6.14591C10.854 4.79626 9.40242 4.00001 7.99904 4.00001C6.59565 4.00001 5.14403 4.79626 3.7484 6.14591C3.2456 6.63214 2.7873 7.15515 2.3842 7.67792C2.29715 7.79083 2.2167 7.89855 2.14315 8.00001C2.2167 8.10146 2.29715 8.20918 2.3842 8.32209C2.7873 8.84486 3.2456 9.36787 3.7484 9.8541C5.14403 11.2038 6.59565 12 7.99904 12C9.40242 12 10.854 11.2038 12.2497 9.8541C12.7525 9.36787 13.2108 8.84486 13.6139 8.32209C13.7009 8.20918 13.7814 8.10146 13.8549 8.00001C13.7814 7.89855 13.7009 7.79083 13.6139 7.67792ZM5.33237 8.00001C5.33237 9.47276 6.52628 10.6667 7.99904 10.6667C9.4718 10.6667 10.6657 9.47276 10.6657 8.00001C10.6657 6.52725 9.4718 5.33334 7.99904 5.33334C6.52628 5.33334 5.33237 6.52725 5.33237 8.00001ZM9.33237 8C9.33237 8.73638 8.73542 9.33334 7.99904 9.33334C7.26266 9.33334 6.6657 8.73638 6.6657 8C6.6657 7.26363 7.26266 6.66667 7.99904 6.66667C8.73542 6.66667 9.33237 7.26363 9.33237 8Z" fill="white"/>
</svg>
