<svg width="16" height="16" viewBox="0 0 16 16" fill="none" xmlns="http://www.w3.org/2000/svg">
<path fill-rule="evenodd" clip-rule="evenodd" d="M10.2761 0.666626H3.33333C2.59695 0.666626 2 1.26358 2 1.99996V14C2 14.7363 2.59695 15.3333 3.33333 15.3333H12.6667C13.403 15.3333 14 14.7363 14 14V4.39048L10.2761 0.666626ZM3.33333 1.99996H8.66667V4.66663C8.66667 5.40301 9.26362 5.99996 10 5.99996H12.6667V14H3.33333V1.99996ZM10 4.66663V2.2761L12.3905 4.66663H10ZM7.33331 6.66663V9.72382L6.47138 8.86189L5.52857 9.8047L7.99998 12.2761L10.4714 9.8047L9.52857 8.86189L8.66664 9.72382V6.66663H7.33331Z" fill="white"/>
</svg>
