<svg width="20" height="20" viewBox="0 0 20 20" fill="none" xmlns="http://www.w3.org/2000/svg">
<path fill-rule="evenodd" clip-rule="evenodd" d="M10.9195 2.24672C11.811 1.81038 12.5886 1.66666 13.795 1.66667C16.8823 1.67946 19.1673 4.28319 19.1673 7.59989C19.1673 10.1314 17.7558 12.5769 15.1266 14.9416C13.7466 16.1828 11.9845 17.4111 10.7226 18.0646L10.0007 18.4384L9.27865 18.0646C8.01675 17.4111 6.25473 16.1828 4.87468 14.9416C2.24551 12.5769 0.833984 10.1314 0.833984 7.59989C0.833984 4.24771 3.09768 1.66666 6.21277 1.66666C7.37588 1.66666 8.19342 1.82397 9.10216 2.27343C9.41855 2.42992 9.71581 2.61554 9.99229 2.82979C10.2799 2.60282 10.5895 2.40826 10.9195 2.24672Z" fill="#FF004D"/>
</svg>
