<svg width="20" height="20" viewBox="0 0 20 20" fill="none" xmlns="http://www.w3.org/2000/svg">
<g clip-path="url(#clip0)">
<path d="M0.746224 14.2904C8.34688 12.1298 11.125 16.496 19.5618 14.2937C19.8749 14.212 20.0625 13.8919 19.9808 13.5788C19.899 13.2657 19.5789 13.0782 19.2658 13.1598C17.6095 13.5922 16.1738 13.7523 14.8737 13.754L13.175 11.0161C14.1791 12.2638 16.0453 12.3357 17.1387 11.173C17.6195 10.6618 17.8724 9.99397 17.8509 9.29257C17.7788 6.94124 14.8979 5.8862 13.3113 7.57327C12.547 8.386 12.4084 9.54159 12.8387 10.474L10.5143 6.72776L13.9636 5.73241C15.0348 5.42331 15.541 4.19714 14.9968 3.22186C14.6016 2.51374 13.7814 2.17616 13.0023 2.401L7.78032 3.90792C6.42637 4.29866 5.82004 5.87256 6.56348 7.07085L8.14184 9.61471C7.00407 10.321 3.39536 12.5588 3.35704 12.5853C2.45122 12.6811 1.48115 12.8632 0.425873 13.1632C0.114624 13.2516 -0.0660012 13.5757 0.0224752 13.887C0.110913 14.1983 0.435092 14.3789 0.746224 14.2904ZM14.1649 8.37616C14.7165 7.78967 15.6372 7.76307 16.222 8.31303C16.8078 8.86401 16.8362 9.78417 16.2851 10.3701C15.7342 10.9559 14.814 10.9843 14.228 10.4333C13.6421 9.88225 13.6139 8.9621 14.1649 8.37616ZM9.44645 9.49483L7.55922 6.45307C7.2259 5.91585 7.49727 5.20932 8.10516 5.03389L13.3271 3.52698C13.5798 3.45401 13.8454 3.5635 13.9735 3.79296C14.1502 4.10964 13.985 4.50651 13.6387 4.60647L9.44606 5.81635C9.07289 5.92405 8.90621 6.35882 9.11063 6.68823L13.4577 13.6946C10.7239 13.4651 8.5025 12.6405 5.68977 12.5153L9.2575 10.3016C9.53246 10.131 9.61707 9.76979 9.44645 9.49483Z" fill="black"/>
<path d="M19.266 15.8942C11.194 18.0014 8.3615 13.6417 0.425874 15.8976C0.114624 15.986 -0.0660013 16.3101 0.0224752 16.6214C0.110952 16.9327 0.435131 17.1133 0.746303 17.0248C8.34697 14.8642 11.1251 19.2304 19.5619 17.0281C19.8751 16.9464 20.0626 16.6263 19.9809 16.3132C19.8992 16.0001 19.579 15.8126 19.266 15.8942Z" fill="black"/>
</g>
<defs>
<clipPath id="clip0">
<rect width="20" height="20" fill="white"/>
</clipPath>
</defs>
</svg>
