<svg xmlns="http://www.w3.org/2000/svg" width="128" height="128"><style>.a{fill:#fff;}</style><title>  background</title><rect height="402" width="582" y="-1" x="-1" fill="none"/><title>  Layer 1</title><path d="m90.2 107.6l-49.3 0c-3.6 0-6.5-2.9-6.5-6.5l0-70.2c0-3.6 2.9-6.5 6.5-6.5l28.7 0c3.2 0 7.4 1.7 9.6 4l13.5 13.5c2.2 2.2 4 6.4 4 9.6l0 49.6c0 3.6-2.9 6.5-6.5 6.5zm-49.3-80.2c-1.9 0-3.5 1.6-3.5 3.5l0 70.2c0 1.9 1.6 3.5 3.5 3.5l49.3 0c1.9 0 3.5-1.6 3.5-3.5l0-49.6c0-2.3-1.4-5.8-3.1-7.5l-13.5-13.5c-1.6-1.6-5.1-3.1-7.5-3.1l-28.7 0z" class="a"/><path d="m90.2 48l-10.6 0c-3.6 0-6.5-2.9-6.5-6.5l0-10.6c0-3 1.6-4.1 3-4.1 1 0 2.1 0.5 3.1 1.6l13.5 13.5c1.9 1.9 1.7 3.4 1.4 4.1 -0.3 0.7-1.2 2-3.9 2zm-14-18.1c-0.1 0.2-0.1 0.5-0.1 1l0 10.6c0 1.9 1.6 3.5 3.5 3.5l10.6 0c0.6 0 0.9-0.1 1-0.1 -0.1-0.2-0.2-0.4-0.6-0.8l-13.5-13.5c-0.4-0.4-0.7-0.6-0.8-0.6z" class="a"/><path d="m53.8 92l-2.6 0 0 3.9c0 0.6-0.1 1-0.4 1.3 -0.3 0.3-0.6 0.4-1 0.4 -0.4 0-0.8-0.1-1-0.4 -0.3-0.3-0.4-0.7-0.4-1.3l0-10.7c0-0.6 0.1-1.1 0.4-1.3 0.3-0.3 0.7-0.4 1.4-0.4l3.6 0c1.1 0 1.9 0.1 2.5 0.2 0.6 0.2 1.1 0.4 1.5 0.8 0.4 0.4 0.7 0.8 0.9 1.3 0.2 0.5 0.3 1.1 0.3 1.8 0 1.4-0.4 2.5-1.3 3.2 -0.9 0.7-2.2 1.1-3.9 1.1zm-0.7-6.4l-1.9 0 0 4.2 1.9 0c0.7 0 1.2-0.1 1.7-0.2 0.4-0.1 0.8-0.4 1-0.7 0.2-0.3 0.4-0.7 0.4-1.2 0-0.6-0.2-1.1-0.5-1.5 -0.4-0.4-1.2-0.6-2.5-0.6z" class="a"/><path d="m63.1 83.6l3.7 0c1 0 1.8 0.1 2.5 0.3s1.3 0.5 1.9 1c1.4 1.2 2.2 3.1 2.2 5.6 0 0.8-0.1 1.6-0.2 2.3 -0.1 0.7-0.4 1.3-0.7 1.9 -0.3 0.6-0.7 1-1.2 1.5 -0.4 0.3-0.8 0.6-1.2 0.8 -0.4 0.2-0.9 0.3-1.4 0.4 -0.5 0.1-1.1 0.1-1.7 0.1l-3.7 0c-0.5 0-0.9-0.1-1.2-0.2s-0.4-0.4-0.5-0.7c-0.1-0.3-0.1-0.6-0.1-1.1l0-10.2c0-0.6 0.1-1 0.4-1.3 0.3-0.3 0.7-0.4 1.3-0.4zm1.1 2.2l0 9.4 2.1 0c0.5 0 0.8 0 1.1 0 0.3 0 0.5-0.1 0.8-0.2s0.5-0.2 0.7-0.4c0.9-0.8 1.4-2.2 1.4-4.1 0-1.4-0.2-2.4-0.6-3.1 -0.4-0.7-0.9-1.1-1.5-1.3 -0.6-0.2-1.3-0.3-2.2-0.3l-1.9 0 0 0z" class="a"/><path d="m84 85.7l-5.5 0 0 3.6 4.6 0c0.4 0 0.7 0.1 1 0.3 0.2 0.2 0.3 0.5 0.3 0.8 0 0.3-0.1 0.6-0.3 0.8s-0.5 0.3-1 0.3l-4.6 0 0 4.6c0 0.6-0.1 1-0.4 1.3s-0.6 0.4-1 0.4c-0.4 0-0.8-0.1-1-0.4 -0.3-0.3-0.4-0.7-0.4-1.3l0-10.7c0-0.4 0.1-0.7 0.2-1 0.1-0.3 0.3-0.4 0.6-0.6 0.3-0.1 0.6-0.2 1-0.2l6.6 0c0.4 0 0.8 0.1 1 0.3 0.2 0.2 0.3 0.5 0.3 0.8 0 0.3-0.1 0.6-0.3 0.8s-0.5 0.3-1 0.3z" class="a"/><path d="m46.4 79c-1.5 0-2.6-0.7-3.2-2 -0.8-2.1 0.4-4.9 3.4-7.8 2.3-2.3 5.6-4.1 9.7-5.6 2.2-4 4.2-8.4 5.6-12.1 -3.1-4.8-3.7-10.8-2.6-14.2 0.7-2.2 1.9-3 2.8-3.3 1.3-0.4 2.5-0.1 3.4 0.9 1.3 1.4 1.8 4.4 1.5 8.9 -0.1 1.8-0.7 4.2-1.8 7.2 0 0.1 0.1 0.1 0.1 0.2 0.7 0.9 1.5 1.8 2.2 2.8 1.7 2.1 3.6 4.5 5.5 6.6 0.6 0 1.1 0 1.6 0 6.8 0 11.4 1.4 12.9 4 0.6 1.1 0.6 2.3 0 3.4 -0.8 1.4-2.6 2.3-4.8 2.3l0 0c-0.5 0-1.1-0.1-1.6-0.2 -2.7-0.5-5.7-2.6-9.4-6.5 -0.9 0.1-1.9 0.1-2.9 0.2 -2.2 0.2-6.3 0.8-10.6 2.1 -1.8 3.3-5.7 9.9-8.7 11.8 -1.1 0.7-2.2 1.1-3.3 1.1zm7.5-11.2c-2.1 1-3.8 2.2-5.2 3.5 -2.6 2.6-2.8 4.2-2.7 4.6 0 0.1 0.2 0.1 0.4 0.1 0.4 0 1-0.2 1.6-0.6 1.3-0.9 3.5-3.7 5.8-7.6zm22.2-4.1c2.3 2.1 4.2 3.3 5.8 3.6 0.4 0.1 0.7 0.1 1.1 0.1 0 0 0 0 0 0 1.2 0 2-0.4 2.2-0.8 0-0.1 0.1-0.2 0-0.4 -0.5-0.9-3-2.3-9-2.5zm-12-9.4c-1 2.6-2.3 5.4-3.7 8.1 3.4-0.9 6.6-1.2 8.4-1.4 0.2 0 0.5 0 0.7-0.1 -1.4-1.7-2.8-3.4-4.1-5 -0.4-0.5-0.9-1.1-1.3-1.6zm-0.8-17.4c0 0-0.1 0-0.1 0 -0.3 0.1-0.7 0.6-0.9 1.4 -0.7 2.2-0.4 5.9 1.1 9.3 0.5-1.6 0.8-3 0.8-4 0.4-5-0.5-6.4-0.7-6.6 -0.1-0.1-0.1-0.1-0.1-0.1z" class="a"/></svg>