<svg width="16" height="16" viewBox="0 0 16 16" fill="none" xmlns="http://www.w3.org/2000/svg">
<path fill-rule="evenodd" clip-rule="evenodd" d="M8.73146 12.1703L8.00065 12.8084L7.26984 12.1703C4.6596 9.89105 3.33398 7.87412 3.33398 5.99998C3.33398 3.34759 5.40298 1.33331 8.00065 1.33331C10.5983 1.33331 12.6673 3.34759 12.6673 5.99998C12.6673 7.87412 11.3417 9.89105 8.73146 12.1703ZM3.79102 9.86892C4.06474 10.2437 4.36966 10.6249 4.70563 11.0126C3.46415 11.2923 2.66732 11.6891 2.66732 12C2.66732 12.5379 5.05341 13.3333 8.00065 13.3333C10.9479 13.3333 13.334 12.5379 13.334 12C13.334 11.6891 12.5372 11.2923 11.2957 11.0126C11.6316 10.6249 11.9366 10.2437 12.2103 9.86892C13.7095 10.3238 14.6673 11.0536 14.6673 12C14.6673 13.6712 11.6808 14.6666 8.00065 14.6666C4.32047 14.6666 1.33398 13.6712 1.33398 12C1.33398 11.0536 2.29181 10.3238 3.79102 9.86892ZM8.00065 2.66665C9.86982 2.66665 11.334 4.09209 11.334 5.99998C11.334 7.36462 10.2491 9.04391 8.00065 11.0373C5.7522 9.04391 4.66732 7.36462 4.66732 5.99998C4.66732 4.09209 6.13148 2.66665 8.00065 2.66665ZM8.00065 3.99998C9.10522 3.99998 10.0007 4.89541 10.0007 5.99998C10.0007 7.10455 9.10522 7.99998 8.00065 7.99998C6.89608 7.99998 6.00065 7.10455 6.00065 5.99998C6.00065 4.89541 6.89608 3.99998 8.00065 3.99998ZM7.33398 5.99998C7.33398 5.63179 7.63246 5.33331 8.00065 5.33331C8.36884 5.33331 8.66732 5.63179 8.66732 5.99998C8.66732 6.36817 8.36884 6.66665 8.00065 6.66665C7.63246 6.66665 7.33398 6.36817 7.33398 5.99998Z" fill="#417FA1"/>
</svg>
