<svg width="20" height="20" viewBox="0 0 20 20" fill="none" xmlns="http://www.w3.org/2000/svg">
<path fill-rule="evenodd" clip-rule="evenodd" d="M10.9129 15.2128L9.99935 16.0105L9.08584 15.2128C5.82303 12.3638 4.16602 9.84267 4.16602 7.49999C4.16602 4.1845 6.75226 1.66666 9.99935 1.66666C13.2464 1.66666 15.8327 4.1845 15.8327 7.49999C15.8327 9.84267 14.1757 12.3638 10.9129 15.2128ZM4.73731 12.3362C5.07947 12.8046 5.46061 13.2811 5.88058 13.7658C4.32872 14.1153 3.33268 14.6114 3.33268 15C3.33268 15.6725 6.3153 16.6667 9.99935 16.6667C13.6834 16.6667 16.666 15.6725 16.666 15C16.666 14.6114 15.67 14.1153 14.1181 13.7658C14.5381 13.2811 14.9192 12.8046 15.2614 12.3362C17.1354 12.9048 18.3327 13.817 18.3327 15C18.3327 17.089 14.5996 18.3333 9.99935 18.3333C5.39913 18.3333 1.66602 17.089 1.66602 15C1.66602 13.817 2.8633 12.9048 4.73731 12.3362ZM9.99935 3.33332C12.3358 3.33332 14.166 5.11512 14.166 7.49999C14.166 9.20579 12.8099 11.3049 9.99935 13.7967C7.18879 11.3049 5.83268 9.20579 5.83268 7.49999C5.83268 5.11512 7.66289 3.33332 9.99935 3.33332ZM9.99935 4.99999C11.3801 4.99999 12.4993 6.11928 12.4993 7.49999C12.4993 8.8807 11.3801 9.99999 9.99935 9.99999C8.61864 9.99999 7.49935 8.8807 7.49935 7.49999C7.49935 6.11928 8.61864 4.99999 9.99935 4.99999ZM9.16602 7.49999C9.16602 7.03975 9.53911 6.66666 9.99935 6.66666C10.4596 6.66666 10.8327 7.03975 10.8327 7.49999C10.8327 7.96023 10.4596 8.33332 9.99935 8.33332C9.53911 8.33332 9.16602 7.96023 9.16602 7.49999Z" fill="black"/>
</svg>
