<svg width="43" height="43" viewBox="0 0 43 43" fill="none" xmlns="http://www.w3.org/2000/svg">
<path fill-rule="evenodd" clip-rule="evenodd" d="M21.5 41.2084C10.75 36.4194 5.375 31.6416 5.375 26.875V8.95835C5.375 7.58308 5.90282 7.26346 7.36362 6.37887C7.80591 6.11104 8.33374 5.79142 8.95833 5.37502C9.24821 5.18177 15.3424 1.79169 21.5 1.79169C26.8665 1.79169 31.3542 3.58335 34.0417 5.37502C34.6663 5.79142 35.1941 6.11104 35.6364 6.37887C37.0972 7.26346 37.625 7.58308 37.625 8.95835C37.6603 9.34755 37.643 17.6243 37.6319 22.9233V22.9239L37.6318 22.9285C37.6281 24.7334 37.625 26.1922 37.625 26.875C37.625 31.6528 32.25 36.4306 21.5 41.2084ZM34.0417 26.875C34.0417 26.4624 34.0427 25.771 34.045 24.6438L34.0522 21.1442C34.0545 20.0121 34.0563 19.0405 34.0579 18.1134C34.0645 14.1141 34.0627 10.6816 34.0588 9.61999L33.8127 9.46721L33.8125 9.46712C33.2332 9.10771 32.4781 8.6393 32.054 8.35653C29.409 6.5932 25.5495 5.37502 21.5 5.37502C17.6266 5.37502 12.593 7.25856 10.946 8.35653C10.5218 8.63933 9.76668 9.1078 9.18731 9.46723L9.18729 9.46723L8.95833 9.60933V26.875C8.95833 29.5777 12.9522 33.269 21.5017 37.2703C30.0501 33.278 34.0417 29.588 34.0417 26.875ZM27.3998 14.8581L19.7084 22.5496L15.6003 18.4415L13.0665 20.9753L19.7084 27.6172L29.9336 17.3919L27.3998 14.8581Z" fill="black"/>
</svg>
