<svg width="20" height="20" viewBox="0 0 20 20" fill="none" xmlns="http://www.w3.org/2000/svg">
<path d="M18.4394 10.9571C18.1593 11.1322 17.9568 11.2587 17.4998 11.2587C17.0428 11.2587 16.8404 11.1322 16.5603 10.9571C16.3382 10.8183 16.0802 10.6579 15.7098 10.5622C15.5507 7.55048 13.0505 5.14911 9.9998 5.14911C6.94914 5.14911 4.44891 7.55044 4.2898 10.5622C3.91945 10.6579 3.66137 10.8183 3.4393 10.9571C3.15922 11.1321 2.9568 11.2587 2.49988 11.2587C2.04297 11.2587 1.84059 11.1322 1.56051 10.9571C1.21859 10.7434 0.793047 10.4774 0 10.4774V11.6493C0.456914 11.6493 0.659297 11.7758 0.939375 11.9508C1.28129 12.1646 1.70684 12.4305 2.49988 12.4305C3.29293 12.4305 3.71848 12.1646 4.06043 11.9508C4.34051 11.7758 4.54293 11.6493 4.99984 11.6493C5.45676 11.6493 5.65918 11.7758 5.93926 11.9508C6.28121 12.1646 6.70676 12.4305 7.4998 12.4305C8.29281 12.4305 8.71836 12.1646 9.06027 11.9508C9.34035 11.7758 9.54273 11.6493 9.99965 11.6493C10.4566 11.6493 10.659 11.7758 10.9391 11.9508C11.2811 12.1646 11.7066 12.4305 12.4996 12.4305C13.2927 12.4305 13.7183 12.1646 14.0602 11.9508C14.3403 11.7758 14.5427 11.6493 14.9997 11.6493C15.4567 11.6493 15.6591 11.7758 15.9392 11.9508C16.2812 12.1646 16.7068 12.4305 17.4998 12.4305C18.2929 12.4305 18.7185 12.1646 19.0605 11.9508C19.3406 11.7758 19.543 11.6493 20 11.6493V10.4774C19.2069 10.4774 18.7814 10.7434 18.4394 10.9571ZM13.4391 10.9571C13.159 11.1322 12.9566 11.2587 12.4996 11.2587C12.0427 11.2587 11.8403 11.1322 11.5602 10.9571C11.2183 10.7434 10.7927 10.4774 9.99969 10.4774C9.20668 10.4774 8.78113 10.7434 8.43922 10.9571C8.15914 11.1321 7.95676 11.2587 7.49984 11.2587C7.04289 11.2587 6.84051 11.1322 6.56043 10.9571C6.29289 10.7899 5.97324 10.5912 5.46734 10.5124C5.64898 8.17079 7.61246 6.32099 9.99988 6.32099C12.3873 6.32099 14.3508 8.17079 14.5324 10.5124C14.0264 10.5912 13.7067 10.7899 13.4391 10.9571Z" fill="black"/>
<path d="M17.4998 14.053C17.0428 14.053 16.8404 13.9266 16.5603 13.7515C16.2183 13.5378 15.7927 13.2718 14.9996 13.2718C14.2066 13.2718 13.781 13.5378 13.4391 13.7515C13.159 13.9266 12.9566 14.053 12.4996 14.053C12.0427 14.053 11.8403 13.9266 11.5602 13.7515C11.2182 13.5378 10.7927 13.2718 9.99965 13.2718C9.20664 13.2718 8.78109 13.5378 8.43918 13.7515C8.1591 13.9265 7.95672 14.053 7.4998 14.053C7.04285 14.053 6.84047 13.9266 6.56039 13.7515C6.21844 13.5378 5.79289 13.2718 4.99984 13.2718C4.2068 13.2718 3.78125 13.5378 3.4393 13.7515C3.15922 13.9265 2.9568 14.053 2.49988 14.053C2.04297 14.053 1.84059 13.9266 1.56051 13.7515C1.21859 13.5378 0.793047 13.2718 0 13.2718V14.4437C0.456914 14.4437 0.659297 14.5701 0.939375 14.7452C1.28129 14.9589 1.70684 15.2249 2.49988 15.2249C3.29293 15.2249 3.71848 14.9589 4.06043 14.7452C4.34051 14.5702 4.54293 14.4437 4.99984 14.4437C5.45676 14.4437 5.65918 14.5701 5.93926 14.7452C6.28121 14.9589 6.70676 15.2249 7.4998 15.2249C8.29281 15.2249 8.71836 14.9589 9.06027 14.7452C9.34035 14.5702 9.54273 14.4437 9.99965 14.4437C10.4566 14.4437 10.659 14.5701 10.9391 14.7452C11.2811 14.9589 11.7066 15.2249 12.4996 15.2249C13.2927 15.2249 13.7183 14.9589 14.0602 14.7452C14.3403 14.5701 14.5427 14.4437 14.9997 14.4437C15.4567 14.4437 15.6591 14.5701 15.9392 14.7452C16.2812 14.9589 16.7068 15.2249 17.4998 15.2249C18.2929 15.2249 18.7185 14.9589 19.0605 14.7452C19.3406 14.5701 19.543 14.4437 20 14.4437V13.2718C19.2069 13.2718 18.7814 13.5378 18.4394 13.7515C18.1593 13.9266 17.9568 14.053 17.4998 14.053Z" fill="black"/>
<path d="M12.4998 16.8475C12.0428 16.8475 11.8404 16.721 11.5604 16.546C11.2184 16.3323 10.7929 16.0663 9.9998 16.0663C9.2068 16.0663 8.78125 16.3323 8.43934 16.546C8.15926 16.721 7.95688 16.8475 7.49996 16.8475C7.04301 16.8475 6.84063 16.721 6.56055 16.546C6.21859 16.3323 5.79305 16.0663 5 16.0663V17.2382C5.45695 17.2382 5.65934 17.3646 5.93941 17.5397C6.28137 17.7534 6.70691 18.0194 7.49996 18.0194C8.29297 18.0194 8.71852 17.7534 9.06043 17.5397C9.34051 17.3647 9.54289 17.2382 9.9998 17.2382C10.4568 17.2382 10.6591 17.3646 10.9393 17.5397C11.2812 17.7534 11.7068 18.0194 12.4998 18.0194C13.2929 18.0194 13.7184 17.7534 14.0604 17.5397C14.3405 17.3646 14.5429 17.2382 14.9998 17.2382V16.0663C14.2068 16.0663 13.7812 16.3323 13.4393 16.546C13.1591 16.721 12.9567 16.8475 12.4998 16.8475Z" fill="black"/>
<path d="M9.41992 1.98059H10.5918V4.08172H9.41992V1.98059Z" fill="black"/>
<path d="M5.62305 3.11157L6.67891 2.60298L7.5908 4.4961L6.53494 5.00469L5.62305 3.11157Z" fill="black"/>
<path d="M2.69336 5.78192L3.42461 4.86551L5.0677 6.17662L4.33645 7.09303L2.69336 5.78192Z" fill="black"/>
<path d="M1.20898 9.45892L1.47031 8.31634L3.51888 8.78489L3.25755 9.92747L1.20898 9.45892Z" fill="black"/>
<path d="M16.4922 8.78473L18.5408 8.31618L18.8021 9.45875L16.7535 9.92731L16.4922 8.78473Z" fill="black"/>
<path d="M14.9492 6.17664L16.5923 4.86553L17.3236 5.78194L15.6805 7.09304L14.9492 6.17664Z" fill="black"/>
<path d="M12.4219 4.5022L13.3338 2.60908L14.3896 3.11767L13.4777 5.01079L12.4219 4.5022Z" fill="black"/>
</svg>
