<svg width="20" height="20" viewBox="0 0 20 20" fill="none" xmlns="http://www.w3.org/2000/svg">
<g clip-path="url(#clip0)">
<path d="M19.3561 10.3125C19.3852 10.0255 19.3757 9.73605 19.3221 9.44078C20.7811 7.60744 19.7494 4.85674 17.445 4.42832C17.0219 2.15208 14.3326 1.11718 12.4983 2.50039C12.4979 1.12238 11.3768 0.00140381 9.99863 0.00140381C8.62054 0.00140381 7.49937 1.12238 7.49902 2.50039C5.6651 1.1175 2.97556 2.15134 2.55226 4.42832C0.247502 4.85681 -0.783095 7.60819 0.675254 9.44078C0.624246 9.72172 0.610654 10.0121 0.641275 10.3125C0.593821 10.7774 0.652953 11.2367 0.80133 11.6602C0.287496 12.2302 7.59119e-05 12.9693 7.59119e-05 13.7495C7.59119e-05 15.7153 1.8081 17.2071 3.74955 16.8108V18.7488H1.87481C1.5297 18.7488 1.2499 19.0285 1.2499 19.3737C1.2499 19.7188 1.5297 19.9986 1.87481 19.9986H18.1225C18.4677 19.9986 18.7474 19.7188 18.7474 19.3737C18.7474 19.0285 18.4677 18.7488 18.1225 18.7488H16.2478V16.8108C19.2187 17.4173 21.1821 13.8632 19.196 11.6602C19.3457 11.2328 19.403 10.7748 19.3561 10.3125ZM8.86481 3.50693C9.02802 3.11393 8.74885 3.00071 8.74885 2.50105C8.74885 1.81189 9.30951 1.25123 9.99867 1.25123C10.8609 1.25123 11.4652 2.10806 11.1764 2.91994C11.0262 3.34199 11.3566 3.77919 11.801 3.75322C12.96 3.68674 13.5658 5.09631 12.745 5.89581C12.5039 6.13066 12.4921 6.5142 12.7182 6.76342C12.9794 7.05119 13.1232 7.42388 13.1232 7.8128C13.1232 8.62035 12.6308 8.70756 12.7294 9.20312C12.763 9.3722 12.8651 9.51983 13.0113 9.61115C14.1408 10.3164 13.9271 12.0167 12.6667 12.424C12.4897 12.4811 12.3474 12.6141 12.2785 12.7868C12.0931 13.2509 12.4983 13.357 12.4983 14.0619C12.4983 14.9234 11.7975 15.6242 10.936 15.6242C10.3168 15.6242 9.75534 15.2575 9.50561 14.6901C9.49444 14.6647 9.48151 14.6406 9.46745 14.6174C9.58709 14.0749 9.72633 13.5203 9.86654 12.9519L12.1529 11.8087C12.4615 11.6544 12.5867 11.279 12.4323 10.9703C12.278 10.6617 11.9027 10.5366 11.5939 10.6909L10.2361 11.3698C10.7179 9.09477 10.6235 8.33902 10.6235 5.00066C10.6235 4.65551 10.3438 4.37575 9.99863 4.37575C9.65352 4.37575 9.37372 4.65551 9.37372 5.00066V7.11411L9.02826 6.9414C8.71959 6.78705 8.34418 6.91215 8.18986 7.22086C8.03551 7.52952 8.16065 7.90494 8.46935 8.05925L9.36626 8.50771C9.29205 10.5066 8.66311 12.4583 8.24392 14.3621C7.23367 14.2374 6.60067 13.1814 6.98831 12.2255C7.09033 11.9741 7.01835 11.6854 6.81013 11.5113C5.999 10.8329 6.07606 9.55436 6.98597 8.98623C7.1322 8.89492 7.23421 8.74728 7.26788 8.57821C7.3665 8.08273 6.87407 7.99532 6.87407 7.18789C6.87407 6.76783 7.03858 6.37363 7.33736 6.07785C7.47856 5.93807 7.54487 5.73946 7.51597 5.54285C7.40603 4.79436 7.84651 4.10219 8.5088 3.85164C8.66991 3.79071 8.79872 3.66597 8.86481 3.50693ZM1.2499 13.7495C1.2499 13.1834 1.50248 12.6531 1.94285 12.2945C2.17543 12.1051 2.24066 11.7772 2.0983 11.5133C1.90707 11.1587 1.8422 10.7716 1.8902 10.3906C1.91399 10.2021 1.80627 9.94325 1.95644 9.45199C2.02409 9.23073 1.96394 8.99022 1.80017 8.8268C0.627214 7.65685 1.45077 5.62561 3.12464 5.62561C3.46974 5.62561 3.74955 5.34585 3.74955 5.0007C3.74955 3.383 5.65588 2.54651 6.8495 3.58176C6.44901 4.09434 6.22568 4.74128 6.25119 5.41771C5.56371 6.26263 5.45915 7.38404 5.85109 8.29551C4.77429 9.3372 4.71273 11.0475 5.69873 12.1682C5.46954 13.1413 5.77329 14.1645 6.511 14.8589C6.15808 15.3407 5.60292 15.6242 4.99937 15.6242C4.34677 15.6242 4.2239 15.3271 3.82751 15.4875C2.59756 15.9855 1.2499 15.0753 1.2499 13.7495ZM4.99937 16.874C6.04821 16.874 7.00917 16.3603 7.59162 15.4943C7.74141 15.5416 7.8967 15.5761 8.05605 15.5978C8.02016 16.8218 8.47178 17.9703 8.88012 18.7488H4.99933V16.874H4.99937ZM10.3273 18.7488C10.055 18.3276 9.53221 17.4152 9.35997 16.3901C10.4581 17.1336 11.937 17.0157 12.9028 16.0693C13.4688 16.5827 14.2084 16.874 14.998 16.874V18.7488H10.3273ZM18.0409 9.45191C18.1159 9.6975 18.1417 9.95926 18.1071 10.2346C18.0857 10.4042 18.2329 10.8943 17.899 11.5133C17.7566 11.7772 17.8219 12.1051 18.0545 12.2945C19.4176 13.4044 18.6361 15.6242 16.8727 15.6242C16.215 15.6242 16.0998 15.3259 15.7008 15.4875C14.9881 15.776 14.1339 15.6072 13.5908 14.9877C13.7783 14.4516 13.797 13.878 13.6532 13.3375C15.2336 12.3749 15.4505 10.1822 14.1462 8.92038C14.4986 8.10085 14.4409 7.1429 13.9704 6.36235C14.5895 5.41459 14.4998 4.12168 13.6676 3.26274C14.8965 2.76461 16.2477 3.6721 16.2477 5.0007C16.2477 5.34585 16.5275 5.62561 16.8726 5.62561C18.5479 5.62561 19.3694 7.6574 18.1971 8.8268C18.0334 8.99018 17.9733 9.23069 18.0409 9.45191Z" fill="black"/>
</g>
<defs>
<clipPath id="clip0">
<rect width="20" height="20" fill="white"/>
</clipPath>
</defs>
</svg>
