<svg width="24" height="24" viewBox="0 0 24 24" fill="none" xmlns="http://www.w3.org/2000/svg">
<path d="M22.9915 8.47064C22.9916 6.21661 22.1082 4.09186 20.504 2.48767C18.8998 0.883484 16.775 0 14.5208 0H9.50189C9.50171 0 9.50171 0 9.50171 0C7.24786 0 5.12292 0.883484 3.51892 2.48749C1.91473 4.09186 1.03125 6.21661 1.03125 8.47064V12.4158C1.03125 14.1616 1.56372 15.8406 2.57117 17.272C3.45996 18.5347 4.65527 19.5211 6.04889 20.1464V22.4125C6.04889 23.5842 6.70496 24 7.26672 24C7.66809 24 8.06946 23.8019 8.46021 23.4113L10.9849 20.8867L14.521 20.8865C16.775 20.8865 18.8998 20.003 20.504 18.399C22.1082 16.7948 22.9916 14.6699 22.9916 12.4158L22.9915 8.47064ZM14.521 19.4802L10.6937 19.4804C10.5071 19.4804 10.3284 19.5544 10.1966 19.6862L7.46594 22.4169C7.46246 22.4205 7.4588 22.424 7.45514 22.4275C7.45514 22.4225 7.45514 22.4174 7.45514 22.4125V19.6771C7.45514 19.3854 7.27515 19.1241 7.00269 19.0201C4.27222 17.9782 2.43768 15.3241 2.43768 12.4158V8.47064C2.43768 6.59216 3.17487 4.82043 4.51337 3.48175C5.85187 2.14343 7.62341 1.40625 9.50189 1.40625H14.5208C16.3993 1.40625 18.171 2.14343 19.5095 3.48193C20.8482 4.82062 21.5854 6.59235 21.5852 8.47064L21.5854 12.4158C21.5852 16.3112 18.4162 19.4802 14.521 19.4802Z" fill="white" fill-opacity="0.3"/>
<path d="M13.8804 11.5002C13.6059 11.2255 13.1608 11.2255 12.8861 11.5002L12.3181 12.068L10.1172 9.86725L10.6852 9.29944C10.817 9.1676 10.8912 8.98871 10.8912 8.80212C10.8912 8.61572 10.817 8.43683 10.6852 8.30499L8.02245 5.64227C7.89062 5.51044 7.71191 5.43628 7.52532 5.43628C7.33892 5.43628 7.16003 5.51044 7.02819 5.64227L5.16418 7.50629C4.15618 8.51428 4.15618 10.1547 5.16436 11.1633L11.0221 17.0214C11.5091 17.5082 12.1586 17.7763 12.8506 17.7763C13.5427 17.7763 14.1922 17.5082 14.6793 17.0214L16.5433 15.1575C16.6751 15.0255 16.7493 14.8468 16.7493 14.6602C16.7493 14.4738 16.6751 14.2949 16.5433 14.1631L13.8804 11.5002ZM13.6848 16.0267C13.4634 16.2481 13.1672 16.3701 12.8506 16.3701C12.534 16.3701 12.2377 16.2481 12.0163 16.0267L6.15881 10.1688C5.69884 9.70886 5.69866 8.96033 6.15862 8.50055L7.52532 7.13367L9.1936 8.80212L8.6256 9.36993C8.49377 9.50177 8.41961 9.68066 8.41961 9.86707C8.41961 10.0536 8.49377 10.2324 8.6256 10.3644L11.8208 13.5596C12.0955 13.834 12.5406 13.8342 12.8152 13.5596L13.3832 12.9918L15.0515 14.66L13.6848 16.0267Z" fill="white" fill-opacity="0.3"/>
<path d="M12.1816 3.11035C11.7933 3.11035 11.4785 3.42511 11.4785 3.81348C11.4785 4.20166 11.7933 4.5166 12.1816 4.5166C13.7908 4.5166 15.3038 5.14319 16.4416 6.28119C17.5796 7.41901 18.2062 8.93182 18.2062 10.5411C18.2062 10.9293 18.5209 11.2443 18.9093 11.2443C19.2975 11.2443 19.6124 10.9295 19.6124 10.5411C19.6124 8.55627 18.8395 6.69025 17.436 5.28674C16.0325 3.88324 14.1665 3.11035 12.1816 3.11035Z" fill="white" fill-opacity="0.3"/>
<path d="M15.1937 10.541C15.1937 10.9291 15.5087 11.2441 15.8969 11.2441C16.2852 11.2441 16.6 10.9291 16.6 10.541C16.6 8.10474 14.6179 6.1228 12.1816 6.1228C11.7933 6.1228 11.4785 6.43756 11.4785 6.82593C11.4785 7.21429 11.7933 7.52905 12.1816 7.52905C13.8426 7.52905 15.1937 8.88019 15.1937 10.541Z" fill="white" fill-opacity="0.3"/>
</svg>
