<svg width="20" height="20" viewBox="0 0 20 20" fill="none" xmlns="http://www.w3.org/2000/svg">
<path d="M19.1595 7.05887C19.1597 5.18051 18.4235 3.40988 17.0866 2.07306C15.7498 0.736237 13.9792 0 12.1007 0H7.91824C7.91809 0 7.91809 0 7.91809 0C6.03989 0 4.2691 0.736237 2.93243 2.07291C1.59561 3.40988 0.859375 5.18051 0.859375 7.05887V10.3465C0.859375 11.8013 1.3031 13.2005 2.14264 14.3933C2.8833 15.4456 3.87939 16.2675 5.04074 16.7886V18.6771C5.04074 19.6535 5.58746 20 6.0556 20C6.39008 20 6.72455 19.8349 7.05017 19.5094L9.15405 17.4055L12.1008 17.4054C13.9792 17.4054 15.7498 16.6692 17.0866 15.3325C18.4235 13.9957 19.1597 12.2249 19.1597 10.3465L19.1595 7.05887ZM12.1008 16.2335L8.91144 16.2337C8.75595 16.2337 8.60703 16.2953 8.49716 16.4052L6.22162 18.6807C6.21872 18.6838 6.21567 18.6867 6.21262 18.6896C6.21262 18.6855 6.21262 18.6812 6.21262 18.6771V16.3976C6.21262 16.1545 6.06262 15.9367 5.83557 15.8501C3.56018 14.9818 2.0314 12.7701 2.0314 10.3465V7.05887C2.0314 5.49347 2.64572 4.01703 3.76114 2.90146C4.87656 1.78619 6.35284 1.17188 7.91824 1.17188H12.1007C13.6661 1.17188 15.1425 1.78619 16.2579 2.90161C17.3735 4.01718 17.9878 5.49362 17.9877 7.05887L17.9878 10.3465C17.9877 13.5927 15.3468 16.2335 12.1008 16.2335Z" fill="white"/>
<path d="M11.5673 9.5834C11.3386 9.35452 10.9676 9.35452 10.7387 9.5834L10.2654 10.0566L8.43131 8.22263L8.90464 7.74945C9.0145 7.63959 9.0763 7.49051 9.0763 7.33502C9.0763 7.17969 9.0145 7.03061 8.90464 6.92075L6.6857 4.70181C6.57584 4.59195 6.42691 4.53015 6.27143 4.53015C6.11609 4.53015 5.96701 4.59195 5.85715 4.70181L4.30381 6.25516C3.46381 7.09515 3.46381 8.46219 4.30396 9.30264L9.1854 14.1844C9.59128 14.5901 10.1325 14.8135 10.7091 14.8135C11.2859 14.8135 11.8272 14.5901 12.233 14.1844L13.7864 12.6312C13.8962 12.5212 13.958 12.3723 13.958 12.2168C13.958 12.0614 13.8962 11.9124 13.7864 11.8025L11.5673 9.5834ZM11.4043 13.3555C11.2199 13.54 10.973 13.6416 10.7091 13.6416C10.4453 13.6416 10.1984 13.54 10.014 13.3555L5.13266 8.47394C4.74936 8.09064 4.74921 7.46686 5.13251 7.08371L6.27143 5.94464L7.66166 7.33502L7.18833 7.8082C7.07846 7.91806 7.01667 8.06714 7.01667 8.22247C7.01667 8.37796 7.07846 8.52689 7.18833 8.6369L9.85099 11.2996C10.0799 11.5283 10.4508 11.5284 10.6797 11.2996L11.153 10.8264L12.5432 12.2166L11.4043 13.3555Z" fill="white"/>
<path d="M10.1523 2.59204C9.8287 2.59204 9.56641 2.85434 9.56641 3.17798C9.56641 3.50146 9.8287 3.76392 10.1523 3.76392C11.4933 3.76392 12.7541 4.28607 13.7023 5.23441C14.6506 6.18259 15.1728 7.44327 15.1728 8.78436C15.1728 9.10785 15.4351 9.3703 15.7587 9.3703C16.0822 9.3703 16.3447 9.108 16.3447 8.78436C16.3447 7.13031 15.7006 5.57529 14.531 4.4057C13.3614 3.23611 11.8064 2.59204 10.1523 2.59204Z" fill="white"/>
<path d="M12.6624 8.78421C12.6624 9.1077 12.9249 9.37015 13.2484 9.37015C13.572 9.37015 13.8343 9.1077 13.8343 8.78421C13.8343 6.75403 12.1825 5.10242 10.1523 5.10242C9.8287 5.10242 9.56641 5.36472 9.56641 5.68835C9.56641 6.01199 9.8287 6.27429 10.1523 6.27429C11.5365 6.27429 12.6624 7.40024 12.6624 8.78421Z" fill="white"/>
</svg>
