<svg width="20" height="20" viewBox="0 0 20 20" fill="none" xmlns="http://www.w3.org/2000/svg">
<g clip-path="url(#clip0)">
<path d="M19.1711 13.509C18.5757 12.7947 17.8749 12.1852 17.2119 11.5379C16.6137 10.9545 16.576 10.616 17.0568 9.9426C17.5816 9.20764 18.146 8.50088 18.6756 7.76924C19.1699 7.08548 19.6752 6.40359 19.9353 5.5849C20.1003 5.06405 19.9544 4.83399 19.4203 4.74279C19.3282 4.72683 19.2331 4.72601 19.1394 4.72601L15.9706 4.72227C15.5803 4.71647 15.3645 4.88663 15.2265 5.23256C15.0402 5.70014 14.8481 6.16731 14.6261 6.61852C14.1224 7.64157 13.5599 8.63042 12.7713 9.46776C12.5974 9.65243 12.405 9.88581 12.1145 9.78964C11.7509 9.65699 11.6438 9.058 11.6498 8.8555L11.6467 5.19794C11.5762 4.67543 11.4603 4.44247 10.9416 4.34091L7.64983 4.34153C7.21043 4.34153 6.99011 4.51128 6.75549 4.78611C6.62015 4.94487 6.57932 5.04788 6.85746 5.10053C7.40381 5.20416 7.71159 5.55775 7.79325 6.10555C7.92424 6.98081 7.91512 7.85961 7.83968 8.7384C7.8175 8.99499 7.77336 9.25096 7.67159 9.49056C7.51241 9.86715 7.25541 9.94384 6.91778 9.71212C6.61207 9.50237 6.39734 9.2064 6.18718 8.90919C5.39772 7.7937 4.76784 6.59075 4.25425 5.32665C4.10585 4.96146 3.84988 4.7401 3.46292 4.73409C2.51221 4.71896 1.56129 4.71647 0.610575 4.73492C0.0385308 4.7457 -0.132046 5.02343 0.100917 5.542C1.1364 7.84531 2.28899 10.0846 3.7935 12.1244C4.56597 13.1713 5.45285 14.0955 6.59859 14.7505C7.89709 15.4929 9.29487 15.7163 10.7671 15.6475C11.4564 15.6152 11.6635 15.4359 11.6954 14.7488C11.7169 14.2787 11.7702 13.8114 12.0021 13.389C12.2297 12.9744 12.5744 12.8955 12.9717 13.1533C13.1705 13.2824 13.3379 13.4468 13.4961 13.6201C13.8841 14.0445 14.2582 14.4819 14.6609 14.892C15.166 15.406 15.7644 15.7097 16.5167 15.6477L19.4292 15.6483C19.8984 15.6177 20.1417 15.0423 19.8723 14.5185C19.6831 14.1517 19.4348 13.825 19.1711 13.509Z" fill="white"/>
</g>
<defs>
<clipPath id="clip0">
<rect width="20" height="20" fill="white"/>
</clipPath>
</defs>
</svg>
