<svg width="20" height="20" viewBox="0 0 20 20" fill="none" xmlns="http://www.w3.org/2000/svg">
<g clip-path="url(#clip0)">
<path d="M14.5893 11.9226L14.5818 11.9851C12.7493 11.0717 12.5576 10.9501 12.3209 11.3051C12.1568 11.5509 11.6784 12.1084 11.5343 12.2734C11.3884 12.4359 11.2434 12.4484 10.9959 12.3359C10.7459 12.2109 9.94345 11.9484 8.99345 11.0984C8.25345 10.4359 7.75678 9.62339 7.61011 9.37339C7.36595 8.95173 7.87678 8.89173 8.34178 8.01173C8.42511 7.83673 8.38261 7.69923 8.32095 7.57506C8.25845 7.45006 7.76095 6.22506 7.55261 5.73673C7.35261 5.25006 7.14678 5.31173 6.99261 5.31173C6.51261 5.27006 6.16178 5.27673 5.85261 5.59839C4.50761 7.07673 4.84678 8.60173 5.99761 10.2234C8.25928 13.1834 9.46428 13.7284 11.6676 14.4851C12.2626 14.6742 12.8051 14.6476 13.2343 14.5859C13.7126 14.5101 14.7068 13.9851 14.9143 13.3976C15.1268 12.8101 15.1268 12.3226 15.0643 12.2101C15.0026 12.0976 14.8393 12.0351 14.5893 11.9226Z" fill="white"/>
<path d="M17.1 2.87416C10.6925 -3.32001 0.0883333 1.17249 0.0841667 9.91083C0.0841667 11.6575 0.541667 13.3608 1.41333 14.865L0 20L5.27917 18.6233C11.8667 22.1817 19.9967 17.4567 20 9.91583C20 7.26916 18.9667 4.77833 17.0875 2.90666L17.1 2.87416ZM18.335 9.88833C18.33 16.2492 11.3475 20.2217 5.825 16.975L5.525 16.7967L2.4 17.6092L3.2375 14.5717L3.03833 14.2592C-0.398333 8.78833 3.55 1.63833 10.06 1.63833C12.2717 1.63833 14.3475 2.50083 15.9108 4.06333C17.4733 5.61249 18.335 7.68833 18.335 9.88833Z" fill="white"/>
</g>
<defs>
<clipPath id="clip0">
<rect width="20" height="20" fill="white"/>
</clipPath>
</defs>
</svg>
