<svg width="20" height="20" viewBox="0 0 20 20" fill="none" xmlns="http://www.w3.org/2000/svg">
<path d="M19.6667 2C19.8507 2 20 1.85075 20 1.66667V0.333333C20 0.14925 19.8507 0 19.6667 0H0.333333C0.14925 0 0 0.14925 0 0.333333V1.66667C0 1.85075 0.14925 2 0.333333 2H1V18H0.333333C0.14925 18 0 18.1493 0 18.3333V19.6667C0 19.8507 0.14925 20 0.333333 20H19.6667C19.8507 20 20 19.8507 20 19.6667V18.3333C20 18.1493 19.8507 18 19.6667 18H19V2H19.6667ZM19.3333 18.6667V19.3333H0.666667V18.6667H19.3333ZM1.66667 18V2H18.3333V18H1.66667ZM0.666667 1.33333V0.666667H19.3333V1.33333H0.666667Z" fill="black"/>
<path d="M9.33398 2.66669H2.66732C2.48323 2.66669 2.33398 2.81594 2.33398 3.00002V17C2.33398 17.1841 2.48323 17.3334 2.66732 17.3334H9.33398C9.51807 17.3334 9.66732 17.1841 9.66732 17V3.00002C9.66732 2.81594 9.51807 2.66669 9.33398 2.66669ZM5.66732 16.6667H3.00065V12.6667H5.66732V16.6667ZM5.66732 12H3.00065V8.00002H5.66732V12ZM5.66732 7.33335H3.00065V3.33335H5.66732V7.33335ZM9.00065 16.6667H6.33398V12.6667H9.00065V16.6667ZM9.00065 12H6.33398V8.00002H9.00065V12ZM9.00065 7.33335H6.33398V3.33335H9.00065V7.33335Z" fill="black"/>
<path d="M17.334 2.66669H10.6673C10.4832 2.66669 10.334 2.81594 10.334 3.00002V17C10.334 17.1841 10.4832 17.3334 10.6673 17.3334H17.334C17.5181 17.3334 17.6673 17.1841 17.6673 17V3.00002C17.6673 2.81594 17.5181 2.66669 17.334 2.66669ZM13.6673 16.6667H11.0007V12.6667H13.6673V16.6667ZM13.6673 12H11.0007V8.00002H13.6673V12ZM13.6673 7.33335H11.0007V3.33335H13.6673V7.33335ZM17.0007 16.6667H14.334V12.6667H17.0007V16.6667ZM17.0007 12H14.334V8.00002H17.0007V12ZM17.0007 7.33335H14.334V3.33335H17.0007V7.33335Z" fill="black"/>
</svg>
