<svg width="20" height="20" viewBox="0 0 20 20" fill="none" xmlns="http://www.w3.org/2000/svg">
<path d="M19.6544 5.27236C19.4095 4.20873 18.5396 3.424 17.4922 3.30694C15.0121 3.03009 12.5019 3.02865 10.0032 3.03009C7.5041 3.02865 4.99344 3.03009 2.51334 3.30694C1.46663 3.424 0.597265 4.20873 0.352413 5.27236C0.00392259 6.7871 0 8.44057 0 10.0001C0 11.5596 0 13.2129 0.34849 14.7274C0.592929 15.7909 1.4625 16.5756 2.50983 16.6929C4.98973 16.9699 7.50018 16.9714 9.99928 16.9699C12.4988 16.9714 15.0086 16.9699 17.4883 16.6929C18.535 16.5758 19.4052 15.7911 19.6501 14.7274C19.9988 13.2127 20 11.5594 20 10.0001C20 8.44057 20.0029 6.7871 19.6544 5.27236ZM7.41905 13.1043C7.41905 10.892 7.41905 8.70276 7.41905 6.49022C9.53868 7.59618 11.6443 8.69471 13.7773 9.80749C11.6509 10.9104 9.54426 12.0023 7.41905 13.1043Z" fill="white"/>
</svg>
